<svg xmlns="http://www.w3.org/2000/svg" viewBox="0 0 512 512">
  <!-- center slabs -->
  <path fill="#e05243" d="M260 348l-137 33V131l137 32z"/>
  <path fill="#8c3123" d="M256 349l133 32V131l-133 32v186"/>
  <!-- right pillars (explicit from path#a) -->
  <path fill="#e05243" d="M256 64v97l58 14V93zm133 67v250l26-13V143zm-133 77v97l58-8v-82zm58 129l-58 14v97l58-29z"/>
  <!-- left pillars (rotate(180 256 256) of path#a, computed explicitly) -->
  <path fill="#8c3123" d="M256 448v-97l-58-14v78zm-133-67V131l-26 13v226zm133-77v-97l-58 8v82zm-58-129l58-14V131l-58 29z"/>
  <!-- top/bottom dividers -->
  <path fill="#5e1f18" d="M314 175l-58 11-58-11 58-15 58 15"/>
  <path fill="#f2b0a9" d="M314 337l-58-11-58 11 58 16 58-16"/>
</svg>
